<?xml version="1.0" standalone="no"?>
<!DOCTYPE svg PUBLIC "-//W3C//DTD SVG 20010904//EN"
 "http://www.w3.org/TR/2001/REC-SVG-20010904/DTD/svg10.dtd">
<svg version="1.0" xmlns="http://www.w3.org/2000/svg"
 width="1000.000000pt" height="1000.000000pt" viewBox="0 0 1000.000000 1000.000000"
 preserveAspectRatio="xMidYMid meet">
<defs>
  <mask id="cutout">
    <rect width="100%" height="100%" fill="white" />
    <circle r="475" cx="500" cy="500" />
  </mask>
</defs>
<circle fill="#333333" r="500" cx="500" cy="500" />

<g transform="translate(0.000000,1000.000000) scale(0.100000,-0.100000)"
fill="#ffffff" stroke="none">
<path d="M4450 8845 c0 -10 10 -15 30 -15 40 0 102 -32 129 -66 20 -26 21 -36
21 -405 0 -378 0 -378 -23 -404 -15 -18 -36 -28 -65 -32 -91 -12 -34 -23 123
-23 103 0 165 4 165 10 0 6 -12 10 -27 10 -42 0 -96 31 -104 60 -10 34 -11
670 -1 670 4 -1 147 -174 317 -385 171 -212 316 -385 323 -385 9 0 12 97 12
450 l0 451 25 24 c18 18 35 25 65 25 29 0 40 4 40 15 0 13 -25 15 -166 15
-128 0 -165 -3 -162 -12 3 -7 18 -14 34 -16 104 -10 104 -9 104 -382 0 -165
-4 -300 -8 -300 -4 0 -65 71 -134 158 -70 86 -198 245 -285 352 l-158 195
-128 3 c-109 2 -127 0 -127 -13z"/>
<path d="M1390 5481 c0 -5 15 -12 33 -15 19 -3 43 -17 55 -29 13 -14 85 -200
180 -467 99 -277 164 -446 173 -448 10 -2 44 82 119 298 58 165 107 300 110
300 3 0 52 -134 111 -298 105 -298 126 -339 144 -280 28 90 286 832 299 856
19 37 62 72 87 72 11 0 19 5 19 10 0 6 -53 10 -140 10 -135 0 -181 -11 -101
-24 86 -13 82 -45 -43 -403 -53 -150 -96 -277 -96 -283 0 -22 -17 -8 -27 23
-6 17 -51 147 -101 287 -49 140 -92 271 -96 291 -8 47 22 89 65 89 16 0 29 5
29 10 0 6 -68 10 -185 10 -117 0 -185 -4 -185 -10 0 -5 9 -10 21 -10 30 0 74
-28 92 -60 9 -15 30 -64 47 -110 l31 -83 -78 -223 c-43 -123 -81 -224 -84
-224 -8 0 -208 576 -215 621 -7 44 20 79 61 79 14 0 25 5 25 10 0 6 -65 10
-175 10 -96 0 -175 -4 -175 -9z"/>
<path d="M7920 5481 c0 -4 21 -11 46 -14 29 -3 54 -13 68 -26 21 -21 21 -26
21 -426 0 -400 0 -405 -21 -426 -14 -13 -39 -23 -68 -26 -30 -4 -46 -10 -46
-19 0 -12 60 -14 366 -12 l366 3 39 110 c21 61 39 113 39 118 0 20 -21 2 -48
-42 -75 -120 -122 -141 -325 -141 -178 0 -167 -15 -167 231 l0 199 130 0 c179
0 208 -13 225 -103 15 -80 25 -30 25 128 0 157 -10 211 -24 126 -3 -22 -17
-53 -30 -68 l-24 -28 -151 -3 -151 -3 0 190 0 191 179 0 c178 0 180 0 210 -26
21 -17 36 -44 47 -80 8 -30 20 -54 25 -54 10 0 12 80 3 158 l-7 52 -363 0
c-200 0 -364 -4 -364 -9z"/>
<path d="M4871 2375 c-60 -17 -95 -39 -139 -89 -41 -46 -55 -96 -50 -172 7
-110 60 -164 281 -290 180 -102 217 -140 217 -226 0 -54 -26 -98 -76 -129 -57
-35 -169 -34 -239 3 -83 44 -132 113 -150 211 -4 21 -12 36 -19 34 -16 -5 -16
-319 0 -324 7 -2 14 8 18 22 8 33 48 33 142 3 103 -34 220 -31 296 6 60 28
118 88 138 141 6 17 12 58 12 91 1 115 -50 178 -213 269 -160 88 -268 163
-286 198 -35 68 -14 136 57 185 69 46 213 19 282 -54 31 -33 63 -102 73 -156
15 -81 25 -31 25 127 0 91 -3 165 -7 165 -5 0 -16 -14 -25 -30 -21 -36 -28
-37 -109 -6 -86 32 -161 39 -228 21z"/>
</g>

<g transform="translate(0.000000,1000.000000) scale(0.100000,-0.100000)"
fill="#cccccc" stroke="none">
<path d="M4530 9795 c0 -10 471 -947 474 -944 2 2 110 217 240 477 l236 472
-475 0 c-261 0 -475 -2 -475 -5z"/>
<path d="M3105 9438 c-27 -11 -51 -21 -53 -22 -2 -2 267 -657 273 -664 5 -5
105 41 105 49 0 12 -260 642 -268 651 -4 3 -29 -3 -57 -14z"/>
<path d="M6587 9129 c-76 -183 -136 -333 -135 -335 2 -1 27 -12 56 -23 l53
-21 8 23 c5 12 66 159 135 325 69 167 126 307 126 312 0 4 -21 16 -47 26 -27
11 -50 20 -54 22 -3 1 -67 -147 -142 -329z"/>
<path d="M1610 8395 l-85 -85 253 -253 253 -253 85 85 85 85 -253 253 -253
253 -85 -85z"/>
<path d="M8060 8225 l-256 -255 86 -85 85 -85 255 255 255 255 -85 85 -85 85
-255 -255z"/>
<path d="M510 6844 c-11 -25 -20 -49 -20 -54 0 -4 44 -26 98 -49 384 -161 557
-230 562 -223 18 22 42 94 34 101 -9 9 -638 271 -649 271 -3 0 -15 -21 -25
-46z"/>
<path d="M9290 6868 c-25 -11 -103 -44 -175 -73 -71 -30 -186 -77 -255 -105
-69 -29 -135 -56 -147 -61 l-23 -8 21 -53 c11 -29 22 -54 24 -56 2 -2 656 266
663 272 6 7 -42 106 -52 105 -6 0 -31 -9 -56 -21z"/>
<path d="M200 5000 l0 -480 475 237 c261 131 475 241 475 245 0 7 -932 478
-945 478 -3 0 -5 -216 -5 -480z"/>
<path d="M9320 5241 l-475 -238 478 -239 477 -239 0 477 c0 263 -1 478 -2 477
-2 0 -217 -107 -478 -238z"/>
<path d="M808 3357 c-175 -73 -318 -137 -318 -143 0 -6 9 -32 20 -58 l21 -46
32 13 c18 8 166 69 330 137 163 67 297 126 297 131 0 21 -41 99 -52 98 -7 0
-156 -60 -330 -132z"/>
<path d="M8711 3438 c-12 -28 -20 -52 -19 -53 7 -6 662 -275 664 -273 1 2 12
27 23 56 l21 53 -32 14 c-325 135 -620 255 -627 255 -4 0 -18 -23 -30 -52z"/>
<path d="M1775 1943 l-250 -253 80 -80 c44 -44 84 -80 90 -80 6 0 123 112 260
250 l250 250 -85 85 c-46 47 -87 84 -90 83 -3 0 -117 -115 -255 -255z"/>
<path d="M7890 2115 l-85 -85 250 -250 c137 -138 253 -249 257 -248 4 2 43 39
88 82 l81 80 -253 253 -253 253 -85 -85z"/>
<path d="M3200 953 c-68 -164 -129 -312 -137 -330 l-13 -32 46 -21 c26 -11 52
-20 58 -20 9 0 276 631 276 653 0 7 -84 47 -99 47 -5 0 -64 -134 -131 -297z"/>
<path d="M6498 1231 c-21 -10 -40 -20 -43 -22 -4 -5 258 -645 269 -656 7 -7
94 25 101 38 5 8 -42 127 -209 529 -30 71 -59 126 -67 127 -8 1 -31 -6 -51
-16z"/>
<path d="M4762 685 c-127 -256 -232 -470 -232 -475 0 -7 166 -10 475 -10 261
0 475 2 475 5 0 13 -471 945 -478 945 -4 0 -112 -209 -240 -465z"/>
</g>
<circle r="500" cx="500" cy="500" mask="url(#cutout)" />
</svg>
